<svg width="13" height="12" viewBox="0 0 13 12" fill="none" xmlns="http://www.w3.org/2000/svg">
<path id="Vector" d="M6.5 0C10.088 0 13 2.688 13 6C13 9.312 10.088 12 6.5 12C2.912 12 0 9.312 0 6C0 2.688 2.912 0 6.5 0ZM6.5 1.2C3.627 1.2 1.3 3.348 1.3 6C1.3 8.652 3.627 10.8 6.5 10.8C9.373 10.8 11.7 8.652 11.7 6C11.7 3.348 9.373 1.2 6.5 1.2ZM6.5 3C7.683 3 8.71845 3.5838 9.2872 4.4568L8.1731 5.0742C7.99777 4.80435 7.74887 4.58163 7.45121 4.42827C7.15355 4.2749 6.81754 4.19625 6.47668 4.20014C6.13581 4.20403 5.80201 4.29034 5.50856 4.45045C5.2151 4.61057 4.97224 4.8389 4.8042 5.11267C4.63615 5.38645 4.54879 5.69611 4.55083 6.01077C4.55287 6.32543 4.64424 6.6341 4.81582 6.906C4.9874 7.1779 5.2332 7.40353 5.52871 7.56039C5.82422 7.71726 6.15911 7.79987 6.5 7.8C6.83679 7.8002 7.16788 7.71983 7.46099 7.56673C7.7541 7.41362 7.99923 7.19301 8.17245 6.9264L9.2872 7.5432C8.92191 8.10637 8.36657 8.54338 7.70635 8.78721C7.04613 9.03103 6.31749 9.06821 5.63218 8.89304C4.94688 8.71786 4.34274 8.34001 3.91244 7.81743C3.48214 7.29485 3.24943 6.6564 3.25 6C3.25 4.344 4.706 3 6.5 3Z" fill="#FEFBF6"/>
</svg>
