<svg width="1440" height="957" viewBox="0 0 1440 957" fill="none" xmlns="http://www.w3.org/2000/svg">
<g opacity="0.2">
<path d="M1455.37 537.299H1450.11L1433.64 537.083L1388.39 482.258L1374.38 483.396L1331.78 456.584L1309.03 457.6L1250.75 403.112L1260.48 379.747L1230.81 345.27L1202.21 340.96L1200.15 330.986L1185.86 326.553L1161.64 277.514L1144.61 231.739L1139.35 203.633L1108.56 188.457L1102.72 181.931L1086.09 163.46L1029.97 225.397L991.309 245.068L951.105 300.479L974.562 343.977L1050.54 402.466L1056.94 416.903L1077.1 428.14L1094.77 464.618L1126.54 481.334L1166.84 525.324L1105.86 493.555L1108.93 503.252L1117.8 524.308L1097.45 508.239L1076.86 503.283L1107.64 561.31L1057.19 513.134L1033.36 475.393L1017.6 463.079L1016.83 475.854L943.532 395.54L919.798 389.691L893.293 369.404L867.958 326.122L840.406 296.754L824.737 298.109L789.182 271.85L806.975 306.266L773.883 283.333L779.824 302.88L731.709 277.176L734.51 256.889L726.783 238.85L721.396 240.912L728.969 215.916L720.35 224.474L718.626 206.527L706.589 202.371L716.225 199.293L715.178 164.353L674.913 136.401L671.68 159.151L659.367 174.912L663.553 139.172L672.111 124.673L663.092 117.839L653.857 128.49L630.122 94.3815L648.254 42.2645L641.02 46.0509L642.005 18.7148L632.154 27.6422L616.762 57.7487L570.402 119.316L533.461 145.236L509.419 196.953L506.248 204.68L468.23 266.956L412.819 311.5L387.73 345.362L427.349 379.84L490.733 350.841L536.909 385.812L695.569 501.928L774.344 543.918L819.196 542.902L974.193 662.743L1025.91 702.762L1040.44 696.913L1051.71 707.226L1084.31 719.016L1114.54 736.347L1169.05 689.894L1188.11 648.213L1235.42 717.938L1249.43 711.412L1263.44 729.882L1295.82 704.024L1312.29 675.272L1323.65 676.442L1334.24 664.128L1349.02 669.208L1378.72 713.69L1410.49 733.515L1425.88 755.064L1437.37 731.853L1447 740.626L1464.61 741.857L1474.61 755.187L1480.77 756.264L1481.82 748.384L1490.87 762.052L1497.21 759.712L1670 695.066L1455.37 537.299ZM1113.67 356.352L1122.17 332.679L1131.1 320.365L1142.92 322.828L1113.67 356.352ZM655.858 252.703L643.79 230.569L631.323 217.578L625.689 226.813L628.306 250.825L606.296 231.677L591.642 263.846L590.288 251.348L602.232 224.905L602.417 209.205L583.546 182.115L586.625 158.196L604.91 123.195L630.338 148.684L631.354 163.922L644.314 179.591L647.392 206.65L660.752 228.968L655.858 252.703ZM772.836 382.426L740.544 365.433L724.906 354.659L712.592 357.183L692.49 339.39L678.822 334.28L677.56 325.968L671.403 317.503L689.104 282.994L688.95 254.057L705.82 236.418L696.985 259.229L703.418 269.911L716.563 302.665L725.306 306.143L754.058 337.881L756.028 349.395L779.67 374.022L811.285 406.068L772.836 382.426ZM1231.51 389.229L1244.23 376.084L1231.51 403.451V389.229ZM1238.81 563.342L1229.58 557.955L1218.89 539.023L1201.9 535.944L1207.63 553.276L1196.36 548.689L1180.97 556.662L1192.88 542.009L1190.51 528.957L1222.43 516.643L1270.46 591.54L1238.81 563.342ZM1343.69 638.455L1321.99 624.479L1342.89 632.113L1313.58 601.791L1354.34 625.495L1381.65 658.957L1343.69 638.455Z" fill="#3D3C42"/>
<path d="M1490.81 762.022L1347.42 815.617L1257.25 830.516L1123.09 861.823L956.862 912.247L794.878 876.754L739.036 903.474L703.327 868.504L482.083 957.007L197.364 818.48L57.6362 855.051L3.24121 829.901L-43.7964 844.277L-86.0627 819.865L-149.2 838.089L-191.189 816.017L-238.104 826.022C-238.104 826.022 -313.216 818.541 -311.985 817.495C-295.7 810.415 -279.262 803.55 -262.731 797.024L-248.54 766.578L-159.759 708.089L-108.904 627.713L-26.9269 531.298L13.6153 531.883L38.9504 516.214L138.136 405.638H161.562L264.596 303.59L271.368 472.347L305.785 602.131L376.587 660.036L361.565 550.261L327.087 519.292L282.204 443.194L349.928 501.13L303.168 401.328L341.555 437.284L323.639 393.171L297.534 353.367L315.635 365.435L327.025 358.816L334.906 362.11L347.527 354.753L375.048 338.714L386.407 393.663L402.169 408.439L427.442 379.657L490.826 350.658C490.149 352.167 489.964 414.565 489.964 414.565L569.171 511.381L579.237 569.069V569.839L564.122 622.171L633.17 670.718L630.708 616.446L613.192 600.407L583.855 545.704L626.306 583.322L585.055 475.271L580.746 444.272L662.323 526.311L701.48 566.884L776.838 621.494L754.643 563.498L793.739 560.635L814.733 566.145L909.578 648.923L884.736 605.487L974.009 662.775L1025.73 702.794L1040.26 696.945L1051.52 707.258L1084.12 719.048L1114.35 736.379L1168.87 689.927L1188.11 648.215L1235.42 717.94L1249.43 711.414L1263.44 729.884L1295.82 704.026L1312.29 675.274L1323.65 676.443L1334.24 664.13L1349.02 669.209L1378.72 713.692L1410.49 733.517L1425.88 755.065L1437.37 731.854L1447 740.628L1464.61 741.859L1474.61 755.188L1480.77 756.266L1481.82 748.385L1490.81 762.022Z" fill="#292F44"/>
<path d="M1075.69 504.078L1102.12 553.914L1058.51 512.269L1034.78 474.685L1034.64 474.464L1034.44 474.303L1018.68 461.99L1016.43 460.233L1016.25 463.082L1015.7 472.316L944.763 394.621L944.456 394.285L944.014 394.176L920.584 388.402L894.562 368.485L869.376 325.366L869.291 325.219L869.175 325.096L841.623 295.728L841.125 295.197L840.4 295.26L825.292 296.566L790.068 270.794L787.851 272.696L802.827 301.535L775.05 282.104L771.492 279.615L772.755 283.769L777.643 299.85L733.645 276.345L736.304 257.095L736.361 256.682L736.196 256.299L728.47 238.259L727.902 236.933L726.555 237.449L724.027 238.417L730.712 216.351L728.22 214.852L721.847 221.178L720.426 206.384L720.334 205.424L719.423 205.109L711.653 202.426L716.989 200.722L718.065 200.378L718.031 199.248L716.985 164.308L716.962 163.552L716.341 163.121L676.076 135.169L674.077 133.782L673.735 136.191L670.559 158.543L661.787 169.772L665.314 139.661L673.711 125.435L674.39 124.284L673.325 123.477L664.305 116.643L663.186 115.795L662.266 116.856L654.294 126.051L632.098 94.1524L649.978 42.7575L651.223 39.1783L647.866 40.9356L642.919 43.5247L643.728 21.0786L656.675 27.4194L656.798 27.4795L656.929 27.5164L663.394 29.3327L663.4 29.3344L678.131 33.4064L714.104 72.5645L717.087 83.4198L717.366 84.4364L718.417 84.5179L730.731 85.4722L733.74 85.7054L732.108 83.1659L724.336 71.0682L721.714 59.9834L719.721 32.3981L719.665 31.6207L718.997 31.2198L696.63 17.806L697.576 2.87925L760.867 46.1605L787.545 88.2582L787.576 88.3058L787.609 88.3511L818.393 129.694L818.531 129.879L818.718 130.014L873.817 169.808L896.925 218.468L897.013 218.654L897.148 218.809L919.202 244.172L949.753 301.005L949.756 301.011L973.429 344.539L973.58 344.818L973.832 345.011L1049.5 403.268L1055.75 417.358L1055.96 417.816L1056.39 418.06L1076.14 429.065L1093.54 465.117L1093.76 465.558L1094.19 465.788L1125.61 482.536L1159.83 520.127L1106.33 492.256L1103.11 490.577L1104.21 494.04L1107.29 503.737L1107.31 503.802L1107.34 503.866L1113.93 519.516L1098.32 507.185L1098.06 506.983L1097.75 506.905L1077.37 501.918L1074.12 501.123L1075.69 504.078ZM832.013 274.997L834.539 277.411L834.549 273.917L834.703 216.29L834.704 215.599L834.182 215.149L790.159 177.235L763.935 142.546L763.807 142.378L763.638 142.251L730.114 117.131L725.927 113.994L727.816 118.873L735.251 138.079L712.167 121.695L709.963 123.6L726.124 155.276L726.245 155.514L726.44 155.695L753.235 180.536L767.024 212.751L767.145 213.033L767.367 213.245L832.013 274.997Z" fill="#FEFBF6" stroke="#3D3C42" stroke-width="3"/>
<path d="M1389.55 481.275L1389.05 480.671L1388.27 480.734L1374.76 481.833L1332.58 455.286L1332.18 455.036L1331.71 455.057L1309.59 456.045L1252.54 402.7L1261.87 380.327L1262.22 379.473L1261.62 378.772L1231.94 344.263L1231.58 343.841L1231.03 343.758L1203.47 339.604L1201.62 330.654L1201.44 329.789L1200.59 329.526L1186.92 325.254L1163.01 276.891L1146.06 231.308L1140.82 203.329L1140.68 202.592L1140.01 202.26L1109.55 187.212L1105.05 182.186L1124.19 169.324L1196.87 227.539L1262.46 338.34L1262.85 339.008L1263.62 339.071L1285.79 340.889L1333.1 414.241L1333.23 414.44L1333.42 414.589L1368.6 443.315L1390.82 463.611L1447.01 535.73L1434.36 535.565L1389.55 481.275Z" fill="#FEFBF6" stroke="#3D3C42" stroke-width="3"/>
<path d="M730.971 83.9782L718.688 83.0239L715.702 71.8186L678.946 32.0767L663.801 27.8901L696.37 0L695.2 18.5626L718.35 32.4461L720.351 60.2131L723.06 71.6647L730.971 83.9782Z" fill="#3D3C42"/>
<path d="M660.814 228.968L655.858 252.703L643.791 230.569L631.323 217.578L625.69 226.875L628.307 250.887L606.265 231.677L591.612 263.847L590.258 251.348L602.202 224.905L602.387 209.205L583.547 182.116L586.718 158.196L604.972 123.195L630.431 148.684L631.447 163.922L644.407 179.591L647.454 206.619L660.814 228.968Z" fill="#FEFBF6"/>
<path d="M811.223 406.068L772.959 382.426L740.667 365.433L725.029 354.659L712.838 357.183L692.582 339.39L678.914 334.28L677.652 325.968L671.465 317.503L689.196 282.994L689.012 254.057L705.881 236.418L697.046 259.229L703.48 269.911L716.625 302.634L725.367 306.143L754.027 337.881L755.997 349.395L779.639 374.022L811.223 406.068Z" fill="#FEFBF6"/>
<path d="M833.11 216.255L833.018 273.913L768.403 212.161L754.489 179.653L727.46 154.595L711.299 122.919L738.45 142.189L729.123 118.332L762.646 143.452L788.997 178.268L833.11 216.255Z" fill="#3D3C42"/>
<path d="M884.302 605.737L907.671 646.596L815.062 565.77L814.974 565.693L814.861 565.663L793.866 560.153L793.786 560.132L793.703 560.138L754.607 563.001L753.936 563.05L754.177 563.678L775.771 620.105L701.809 566.507L662.683 525.965L662.678 525.96L581.101 443.921L580.044 442.859L580.251 444.343L584.56 475.342L584.568 475.398L584.589 475.451L625.115 581.605L584.032 545.332L583.261 545.943L612.598 600.646L612.638 600.72L612.7 600.778L630.064 616.677L632.471 669.725L564.548 621.969L579.564 569.98L579.584 569.912V569.841V569.071V569.028L579.576 568.985L569.51 511.297L569.487 511.167L569.404 511.066L490.311 414.39L490.311 414.39L490.313 413.868C490.314 413.411 490.317 412.74 490.32 411.885C490.326 410.176 490.336 407.733 490.35 404.796C490.378 398.923 490.422 391.077 490.488 383.184C490.553 375.29 490.64 367.351 490.752 361.291C490.808 358.261 490.871 355.704 490.941 353.858C490.976 352.935 491.012 352.194 491.05 351.662C491.052 351.633 491.054 351.605 491.056 351.578L536.546 386.029L536.546 386.029L536.553 386.034L695.274 502.335L695.303 502.356L695.334 502.373L774.018 544.362L774.133 544.424L774.264 544.421L818.939 543.409L964.848 656.224L885.006 605.068L884.302 605.737Z" fill="#FEFBF6" stroke="#3D3C42"/>
<path d="M1270.7 591.51L1238.9 563.343L1229.67 557.956L1219.02 539.024L1202.02 535.822L1207.75 553.154L1196.48 548.567L1181.21 556.54L1193.13 541.887L1190.76 528.834L1222.68 516.613L1270.7 591.51Z" fill="#FEFBF6"/>
<path d="M1381.56 658.929L1343.78 638.458L1322.08 624.482L1342.98 632.116L1313.59 601.887L1354.25 625.498L1381.56 658.929Z" fill="#FEFBF6"/>
<path d="M1244.32 376.086L1231.61 403.453V389.231L1244.32 376.086Z" fill="#FEFBF6"/>
<path d="M1142.8 322.705L1113.55 356.352L1122.05 332.679L1130.98 320.273L1142.8 322.705Z" fill="#FEFBF6"/>
<path d="M266.3 306.351L344.49 354.714L334.672 360.438L327.48 357.432L326.792 357.145L326.148 357.519L315.567 363.667L298.244 352.089L296.156 354.159L322.181 393.84L337.477 431.528L304.038 400.233L301.655 401.965L345.458 495.453L283.18 442.056L280.911 443.956L325.794 520.054L325.912 520.253L326.083 520.408L360.122 551.009L374.552 656.455L307.202 601.278L272.952 472.122L266.3 306.351Z" fill="#FEFBF6" stroke="#3D3C42" stroke-width="3"/>
<path d="M411.85 310.208L411.7 310.329L411.585 310.483L386.497 344.284L385.669 345.398L386.716 346.309L425.199 379.798L401.942 406.284L387.658 392.893L376.524 339.035L416.076 281.35L505.399 202.79L504.924 203.819L467.088 265.797L411.85 310.208Z" fill="#FEFBF6" stroke="#3D3C42" stroke-width="3"/>
</g>
</svg>
