<svg width="35" height="35" viewBox="0 0 35 35" fill="none" xmlns="http://www.w3.org/2000/svg">
<g id="Group">
<path id="Vector" d="M22.3113 8.09042C21.2029 8.09023 20.1388 8.52518 19.3479 9.30166C18.5569 10.0781 18.1024 11.1341 18.0822 12.2423L18.0413 14.5392C18.0389 14.6625 18.0105 14.7839 17.9579 14.8955C17.9053 15.007 17.8297 15.1062 17.736 15.1865C17.6424 15.2668 17.5328 15.3264 17.4145 15.3613C17.2962 15.3963 17.1719 15.4058 17.0497 15.3894L14.7732 15.0802C11.7778 14.6719 8.90779 13.2923 6.15445 10.9983C5.28237 15.8254 6.9857 19.1694 11.088 21.7492L13.6357 23.3504C13.7568 23.4265 13.8573 23.5311 13.9286 23.655C13.9999 23.7789 14.0397 23.9184 14.0446 24.0613C14.0495 24.2042 14.0193 24.3461 13.9567 24.4746C13.894 24.6032 13.8009 24.7144 13.6853 24.7985L11.3636 26.4946C12.7447 26.5806 14.0557 26.5194 15.1436 26.3035C22.024 24.9298 26.5988 19.7527 26.5988 11.2127C26.5988 10.5156 25.123 8.09042 22.3113 8.09042ZM15.1655 12.1883C15.1909 10.7826 15.6305 9.41556 16.4292 8.25845C17.2279 7.10134 18.3502 6.20555 19.6556 5.68324C20.961 5.16094 22.3914 5.03533 23.7678 5.32213C25.1443 5.60894 26.4055 6.29542 27.3936 7.29563C28.4305 7.28833 29.3128 7.55083 31.2859 6.355C30.7974 8.74667 30.5567 9.785 29.5155 11.2127C29.5155 22.3573 22.6657 27.7765 15.7153 29.1633C10.9495 30.1142 4.01945 28.5523 2.0332 26.4785C3.04529 26.3998 7.15779 25.9579 9.53487 24.2181C7.52383 22.8925 -0.480964 18.1821 4.77925 5.51792C7.2482 8.40104 9.75216 10.364 12.2897 11.4052C13.9784 12.0979 14.3926 12.0833 15.167 12.1898L15.1655 12.1883Z" fill="#FEFBF6"/>
</g>
</svg>
